<svg xmlns="http://www.w3.org/2000/svg" xmlns:xlink="http://www.w3.org/1999/xlink" width="500" zoomAndPan="magnify" viewBox="0 0 375 374.999991" height="500" preserveAspectRatio="xMidYMid meet" version="1.0"><defs><g/><clipPath id="c9ddb59479"><path d="M 71.835938 135.644531 L 154.335938 135.644531 L 154.335938 210.644531 L 71.835938 210.644531 Z M 71.835938 135.644531 " clip-rule="nonzero"/></clipPath><clipPath id="2acb6343c4"><path d="M 110 186 L 143 186 L 143 210.644531 L 110 210.644531 Z M 110 186 " clip-rule="nonzero"/></clipPath></defs><rect x="-37.5" width="450" fill="#ffffff" y="-37.499999" height="449.999989" fill-opacity="1"/><rect x="-37.5" width="450" fill="#ffffff" y="-37.499999" height="449.999989" fill-opacity="1"/><g clip-path="url(#c9ddb59479)"><path fill="#ffbd59" d="M 154.097656 135.777344 L 126.878906 141.238281 L 136.542969 145.8125 C 113.5 168.855469 95.835938 186.519531 71.933594 210.421875 L 87.296875 210.421875 C 87.9375 209.78125 147.542969 150.175781 144.222656 153.496094 L 148.800781 163.15625 Z M 154.097656 135.777344 " fill-opacity="1" fill-rule="nonzero"/></g><path fill="#000000" d="M 87.484375 155.609375 L 104.078125 172.175781 L 96.371094 179.882812 L 72.121094 155.609375 Z M 87.484375 155.609375 " fill-opacity="1" fill-rule="nonzero"/><g clip-path="url(#2acb6343c4)"><path fill="#000000" d="M 142.324219 210.449219 L 126.933594 210.449219 L 110.234375 193.722656 L 117.914062 186.039062 Z M 142.324219 210.449219 " fill-opacity="1" fill-rule="nonzero"/></g><g fill="#000000" fill-opacity="1"><g transform="translate(143.884829, 194.180128)"><g><path d="M 10.515625 0.265625 C 9.128906 0.265625 7.851562 0.0390625 6.6875 -0.40625 C 5.53125 -0.863281 4.523438 -1.507812 3.671875 -2.34375 C 2.816406 -3.175781 2.15625 -4.171875 1.6875 -5.328125 C 1.226562 -6.484375 1 -7.753906 1 -9.140625 L 1 -9.1875 C 1 -10.570312 1.226562 -11.84375 1.6875 -13 C 2.15625 -14.15625 2.816406 -15.15625 3.671875 -16 C 4.523438 -16.84375 5.535156 -17.492188 6.703125 -17.953125 C 7.878906 -18.410156 9.160156 -18.640625 10.546875 -18.640625 C 11.660156 -18.640625 12.707031 -18.476562 13.6875 -18.15625 C 14.664062 -17.84375 15.570312 -17.398438 16.40625 -16.828125 L 15.515625 -15.015625 C 14.734375 -15.546875 13.921875 -15.929688 13.078125 -16.171875 C 12.242188 -16.410156 11.398438 -16.53125 10.546875 -16.53125 C 9.566406 -16.53125 8.640625 -16.359375 7.765625 -16.015625 C 6.898438 -15.679688 6.128906 -15.195312 5.453125 -14.5625 C 4.785156 -13.9375 4.257812 -13.171875 3.875 -12.265625 C 3.488281 -11.359375 3.296875 -10.332031 3.296875 -9.1875 L 3.296875 -9.140625 C 3.296875 -8.023438 3.484375 -7.019531 3.859375 -6.125 C 4.242188 -5.226562 4.769531 -4.457031 5.4375 -3.8125 C 6.113281 -3.164062 6.882812 -2.671875 7.75 -2.328125 C 8.613281 -1.984375 9.535156 -1.8125 10.515625 -1.8125 C 11.390625 -1.8125 12.242188 -1.9375 13.078125 -2.1875 C 13.921875 -2.4375 14.734375 -2.816406 15.515625 -3.328125 L 16.40625 -1.5 C 15.601562 -0.96875 14.71875 -0.539062 13.75 -0.21875 C 12.789062 0.101562 11.710938 0.265625 10.515625 0.265625 Z M 10.515625 0.265625 "/></g></g></g><g fill="#000000" fill-opacity="1"><g transform="translate(161.662034, 194.180128)"><g><path d="M 3.625 0 L 1.375 0 L 1.375 -12.078125 C 2.175781 -12.296875 3 -12.4375 3.84375 -12.5 C 4.6875 -12.570312 5.378906 -12.609375 5.921875 -12.609375 L 8.265625 -12.609375 L 8.265625 -10.515625 L 6.359375 -10.515625 C 6.066406 -10.515625 5.734375 -10.5 5.359375 -10.46875 C 4.992188 -10.445312 4.65625 -10.410156 4.34375 -10.359375 C 4.03125 -10.316406 3.789062 -10.265625 3.625 -10.203125 Z M 3.625 0 "/></g></g></g><g fill="#000000" fill-opacity="1"><g transform="translate(171.048294, 194.180128)"><g><path d="M 10.140625 -2.515625 L 10.140625 -12.359375 L 12.40625 -12.359375 L 12.40625 0.40625 C 12.40625 1.582031 12.160156 2.519531 11.671875 3.21875 C 11.191406 3.925781 10.546875 4.429688 9.734375 4.734375 C 8.929688 5.035156 8.023438 5.1875 7.015625 5.1875 C 6.273438 5.1875 5.523438 5.101562 4.765625 4.9375 C 4.003906 4.769531 3.40625 4.566406 2.96875 4.328125 L 2.53125 2.015625 C 3.101562 2.359375 3.789062 2.628906 4.59375 2.828125 C 5.394531 3.035156 6.101562 3.140625 6.71875 3.140625 C 7.988281 3.140625 8.875 2.890625 9.375 2.390625 C 9.882812 1.898438 10.140625 1.15625 10.140625 0.15625 L 10.140625 -0.515625 C 9.609375 -0.441406 9.03125 -0.378906 8.40625 -0.328125 C 7.789062 -0.273438 7.257812 -0.25 6.8125 -0.25 C 5.800781 -0.25 4.882812 -0.390625 4.0625 -0.671875 C 3.238281 -0.960938 2.582031 -1.453125 2.09375 -2.140625 C 1.613281 -2.828125 1.375 -3.765625 1.375 -4.953125 L 1.375 -12.578125 L 3.625 -12.578125 L 3.625 -5.203125 C 3.625 -4.117188 3.914062 -3.359375 4.5 -2.921875 C 5.09375 -2.492188 5.898438 -2.28125 6.921875 -2.28125 C 7.429688 -2.28125 7.984375 -2.300781 8.578125 -2.34375 C 9.179688 -2.394531 9.703125 -2.453125 10.140625 -2.515625 Z M 10.140625 -2.515625 "/></g></g></g><g fill="#000000" fill-opacity="1"><g transform="translate(185.093673, 194.180128)"><g><path d="M 3.625 5 L 1.375 5 L 1.375 -12.0625 C 2.113281 -12.3125 2.910156 -12.53125 3.765625 -12.71875 C 4.628906 -12.914062 5.59375 -13.015625 6.65625 -13.015625 C 8.050781 -13.015625 9.253906 -12.722656 10.265625 -12.140625 C 11.273438 -11.554688 12.050781 -10.765625 12.59375 -9.765625 C 13.144531 -8.773438 13.421875 -7.644531 13.421875 -6.375 L 13.421875 -6.328125 C 13.421875 -5.078125 13.15625 -3.953125 12.625 -2.953125 C 12.09375 -1.953125 11.328125 -1.164062 10.328125 -0.59375 C 9.335938 -0.0195312 8.132812 0.265625 6.71875 0.265625 C 6.207031 0.265625 5.691406 0.21875 5.171875 0.125 C 4.648438 0.03125 4.132812 -0.0820312 3.625 -0.21875 Z M 6.65625 -1.734375 C 7.644531 -1.734375 8.472656 -1.9375 9.140625 -2.34375 C 9.804688 -2.757812 10.304688 -3.316406 10.640625 -4.015625 C 10.984375 -4.710938 11.15625 -5.484375 11.15625 -6.328125 L 11.15625 -6.375 C 11.15625 -7.238281 10.984375 -8.015625 10.640625 -8.703125 C 10.304688 -9.398438 9.804688 -9.957031 9.140625 -10.375 C 8.472656 -10.789062 7.644531 -11 6.65625 -11 C 6.082031 -11 5.550781 -10.960938 5.0625 -10.890625 C 4.570312 -10.828125 4.09375 -10.742188 3.625 -10.640625 L 3.625 -2.265625 C 4.101562 -2.128906 4.597656 -2.003906 5.109375 -1.890625 C 5.617188 -1.785156 6.132812 -1.734375 6.65625 -1.734375 Z M 6.65625 -1.734375 "/></g></g></g><g fill="#000000" fill-opacity="1"><g transform="translate(199.794947, 194.180128)"><g><path d="M 10.3125 0 L 7.28125 0 C 5.6875 0 4.582031 -0.332031 3.96875 -1 C 3.351562 -1.675781 3.046875 -2.675781 3.046875 -4 L 3.046875 -10.515625 L 0.640625 -10.515625 L 0.640625 -12.578125 L 3.046875 -12.578125 L 3.046875 -16.78125 L 5.3125 -16.78125 L 5.3125 -12.578125 L 10.296875 -12.578125 L 10.296875 -10.515625 L 5.3125 -10.515625 L 5.3125 -4.734375 C 5.3125 -3.734375 5.550781 -3.046875 6.03125 -2.671875 C 6.519531 -2.296875 7.25 -2.109375 8.21875 -2.109375 L 10.3125 -2.109375 Z M 10.3125 0 "/></g></g></g><g fill="#000000" fill-opacity="1"><g transform="translate(211.352449, 194.180128)"><g><path d="M 7.78125 0.296875 C 6.46875 0.296875 5.300781 0.0078125 4.28125 -0.5625 C 3.269531 -1.132812 2.46875 -1.921875 1.875 -2.921875 C 1.289062 -3.929688 1 -5.066406 1 -6.328125 L 1 -6.375 C 1 -7.644531 1.289062 -8.773438 1.875 -9.765625 C 2.46875 -10.765625 3.269531 -11.554688 4.28125 -12.140625 C 5.300781 -12.722656 6.46875 -13.015625 7.78125 -13.015625 C 9.09375 -13.015625 10.257812 -12.722656 11.28125 -12.140625 C 12.300781 -11.554688 13.097656 -10.765625 13.671875 -9.765625 C 14.253906 -8.773438 14.546875 -7.644531 14.546875 -6.375 L 14.546875 -6.328125 C 14.546875 -5.066406 14.253906 -3.929688 13.671875 -2.921875 C 13.097656 -1.921875 12.300781 -1.132812 11.28125 -0.5625 C 10.257812 0.0078125 9.09375 0.296875 7.78125 0.296875 Z M 7.78125 -1.71875 C 8.675781 -1.71875 9.460938 -1.925781 10.140625 -2.34375 C 10.816406 -2.757812 11.34375 -3.316406 11.71875 -4.015625 C 12.09375 -4.710938 12.28125 -5.492188 12.28125 -6.359375 L 12.28125 -6.375 C 12.28125 -7.238281 12.09375 -8.019531 11.71875 -8.71875 C 11.34375 -9.425781 10.816406 -9.984375 10.140625 -10.390625 C 9.460938 -10.796875 8.675781 -11 7.78125 -11 C 6.894531 -11 6.109375 -10.796875 5.421875 -10.390625 C 4.742188 -9.984375 4.21875 -9.425781 3.84375 -8.71875 C 3.46875 -8.019531 3.28125 -7.238281 3.28125 -6.375 L 3.28125 -6.359375 C 3.28125 -5.492188 3.46875 -4.710938 3.84375 -4.015625 C 4.21875 -3.316406 4.742188 -2.757812 5.421875 -2.34375 C 6.109375 -1.925781 6.894531 -1.71875 7.78125 -1.71875 Z M 7.78125 -1.71875 "/></g></g></g><g fill="#000000" fill-opacity="1"><g transform="translate(227.184582, 194.180128)"><g><path d="M 10.515625 0.265625 C 9.128906 0.265625 7.851562 0.0390625 6.6875 -0.40625 C 5.53125 -0.863281 4.523438 -1.507812 3.671875 -2.34375 C 2.816406 -3.175781 2.15625 -4.171875 1.6875 -5.328125 C 1.226562 -6.484375 1 -7.753906 1 -9.140625 L 1 -9.1875 C 1 -10.570312 1.226562 -11.84375 1.6875 -13 C 2.15625 -14.15625 2.816406 -15.15625 3.671875 -16 C 4.523438 -16.84375 5.535156 -17.492188 6.703125 -17.953125 C 7.878906 -18.410156 9.160156 -18.640625 10.546875 -18.640625 C 11.660156 -18.640625 12.707031 -18.476562 13.6875 -18.15625 C 14.664062 -17.84375 15.570312 -17.398438 16.40625 -16.828125 L 15.515625 -15.015625 C 14.734375 -15.546875 13.921875 -15.929688 13.078125 -16.171875 C 12.242188 -16.410156 11.398438 -16.53125 10.546875 -16.53125 C 9.566406 -16.53125 8.640625 -16.359375 7.765625 -16.015625 C 6.898438 -15.679688 6.128906 -15.195312 5.453125 -14.5625 C 4.785156 -13.9375 4.257812 -13.171875 3.875 -12.265625 C 3.488281 -11.359375 3.296875 -10.332031 3.296875 -9.1875 L 3.296875 -9.140625 C 3.296875 -8.023438 3.484375 -7.019531 3.859375 -6.125 C 4.242188 -5.226562 4.769531 -4.457031 5.4375 -3.8125 C 6.113281 -3.164062 6.882812 -2.671875 7.75 -2.328125 C 8.613281 -1.984375 9.535156 -1.8125 10.515625 -1.8125 C 11.390625 -1.8125 12.242188 -1.9375 13.078125 -2.1875 C 13.921875 -2.4375 14.734375 -2.816406 15.515625 -3.328125 L 16.40625 -1.5 C 15.601562 -0.96875 14.71875 -0.539062 13.75 -0.21875 C 12.789062 0.101562 11.710938 0.265625 10.515625 0.265625 Z M 10.515625 0.265625 "/></g></g></g><g fill="#000000" fill-opacity="1"><g transform="translate(244.961787, 194.180128)"><g><path d="M 7.78125 0.296875 C 6.46875 0.296875 5.300781 0.0078125 4.28125 -0.5625 C 3.269531 -1.132812 2.46875 -1.921875 1.875 -2.921875 C 1.289062 -3.929688 1 -5.066406 1 -6.328125 L 1 -6.375 C 1 -7.644531 1.289062 -8.773438 1.875 -9.765625 C 2.46875 -10.765625 3.269531 -11.554688 4.28125 -12.140625 C 5.300781 -12.722656 6.46875 -13.015625 7.78125 -13.015625 C 9.09375 -13.015625 10.257812 -12.722656 11.28125 -12.140625 C 12.300781 -11.554688 13.097656 -10.765625 13.671875 -9.765625 C 14.253906 -8.773438 14.546875 -7.644531 14.546875 -6.375 L 14.546875 -6.328125 C 14.546875 -5.066406 14.253906 -3.929688 13.671875 -2.921875 C 13.097656 -1.921875 12.300781 -1.132812 11.28125 -0.5625 C 10.257812 0.0078125 9.09375 0.296875 7.78125 0.296875 Z M 7.78125 -1.71875 C 8.675781 -1.71875 9.460938 -1.925781 10.140625 -2.34375 C 10.816406 -2.757812 11.34375 -3.316406 11.71875 -4.015625 C 12.09375 -4.710938 12.28125 -5.492188 12.28125 -6.359375 L 12.28125 -6.375 C 12.28125 -7.238281 12.09375 -8.019531 11.71875 -8.71875 C 11.34375 -9.425781 10.816406 -9.984375 10.140625 -10.390625 C 9.460938 -10.796875 8.675781 -11 7.78125 -11 C 6.894531 -11 6.109375 -10.796875 5.421875 -10.390625 C 4.742188 -9.984375 4.21875 -9.425781 3.84375 -8.71875 C 3.46875 -8.019531 3.28125 -7.238281 3.28125 -6.375 L 3.28125 -6.359375 C 3.28125 -5.492188 3.46875 -4.710938 3.84375 -4.015625 C 4.21875 -3.316406 4.742188 -2.757812 5.421875 -2.34375 C 6.109375 -1.925781 6.894531 -1.71875 7.78125 -1.71875 Z M 7.78125 -1.71875 "/></g></g></g><g fill="#000000" fill-opacity="1"><g transform="translate(260.79392, 194.180128)"><g><path d="M 3.625 0 L 1.375 0 L 1.375 -12.375 C 2.40625 -12.550781 3.429688 -12.695312 4.453125 -12.8125 C 5.484375 -12.925781 6.320312 -12.984375 6.96875 -12.984375 C 7.976562 -12.984375 8.890625 -12.835938 9.703125 -12.546875 C 10.515625 -12.265625 11.164062 -11.785156 11.65625 -11.109375 C 12.15625 -10.429688 12.40625 -9.488281 12.40625 -8.28125 L 12.40625 0 L 10.140625 0 L 10.140625 -8.015625 C 10.140625 -9.109375 9.847656 -9.875 9.265625 -10.3125 C 8.679688 -10.75 7.867188 -10.96875 6.828125 -10.96875 C 6.390625 -10.96875 5.890625 -10.941406 5.328125 -10.890625 C 4.765625 -10.835938 4.195312 -10.753906 3.625 -10.640625 Z M 3.625 0 "/></g></g></g><g fill="#000000" fill-opacity="1"><g transform="translate(274.816685, 194.180128)"><g><path d="M 6.765625 -1.609375 L 10.84375 -12.578125 L 13.1875 -12.578125 L 8.28125 0 L 5.21875 0 L 0.3125 -12.578125 L 2.671875 -12.578125 Z M 6.765625 -1.609375 "/></g></g></g><g fill="#000000" fill-opacity="1"><g transform="translate(288.590668, 194.180128)"><g><path d="M 13.5 -6.109375 L 13.5 -5.609375 L 3.34375 -5.609375 C 3.507812 -4.503906 3.96875 -3.578125 4.71875 -2.828125 C 5.46875 -2.085938 6.484375 -1.71875 7.765625 -1.71875 C 8.648438 -1.71875 9.4375 -1.859375 10.125 -2.140625 C 10.8125 -2.421875 11.390625 -2.738281 11.859375 -3.09375 L 12.828125 -1.3125 C 12.242188 -0.90625 11.523438 -0.539062 10.671875 -0.21875 C 9.828125 0.101562 8.828125 0.265625 7.671875 0.265625 C 6.296875 0.265625 5.109375 -0.0078125 4.109375 -0.5625 C 3.117188 -1.125 2.351562 -1.898438 1.8125 -2.890625 C 1.269531 -3.890625 1 -5.046875 1 -6.359375 L 1 -6.375 C 1 -7.65625 1.25 -8.796875 1.75 -9.796875 C 2.257812 -10.796875 2.976562 -11.582031 3.90625 -12.15625 C 4.84375 -12.726562 5.953125 -13.015625 7.234375 -13.015625 C 8.566406 -13.015625 9.695312 -12.726562 10.625 -12.15625 C 11.550781 -11.582031 12.257812 -10.773438 12.75 -9.734375 C 13.25 -8.703125 13.5 -7.492188 13.5 -6.109375 Z M 7.21875 -11.015625 C 6.164062 -11.015625 5.304688 -10.6875 4.640625 -10.03125 C 3.972656 -9.375 3.550781 -8.554688 3.375 -7.578125 L 11.125 -7.578125 C 10.988281 -8.523438 10.597656 -9.332031 9.953125 -10 C 9.304688 -10.675781 8.394531 -11.015625 7.21875 -11.015625 Z M 7.21875 -11.015625 "/></g></g></g><g fill="#000000" fill-opacity="1"><g transform="translate(303.382419, 194.180128)"><g><path d="M 3.625 0 L 1.375 0 L 1.375 -12.078125 C 2.175781 -12.296875 3 -12.4375 3.84375 -12.5 C 4.6875 -12.570312 5.378906 -12.609375 5.921875 -12.609375 L 8.265625 -12.609375 L 8.265625 -10.515625 L 6.359375 -10.515625 C 6.066406 -10.515625 5.734375 -10.5 5.359375 -10.46875 C 4.992188 -10.445312 4.65625 -10.410156 4.34375 -10.359375 C 4.03125 -10.316406 3.789062 -10.265625 3.625 -10.203125 Z M 3.625 0 "/></g></g></g><g fill="#000000" fill-opacity="1"><g transform="translate(312.768679, 194.180128)"><g><path d="M 10.3125 0 L 7.28125 0 C 5.6875 0 4.582031 -0.332031 3.96875 -1 C 3.351562 -1.675781 3.046875 -2.675781 3.046875 -4 L 3.046875 -10.515625 L 0.640625 -10.515625 L 0.640625 -12.578125 L 3.046875 -12.578125 L 3.046875 -16.78125 L 5.3125 -16.78125 L 5.3125 -12.578125 L 10.296875 -12.578125 L 10.296875 -10.515625 L 5.3125 -10.515625 L 5.3125 -4.734375 C 5.3125 -3.734375 5.550781 -3.046875 6.03125 -2.671875 C 6.519531 -2.296875 7.25 -2.109375 8.21875 -2.109375 L 10.3125 -2.109375 Z M 10.3125 0 "/></g></g></g><g fill="#000000" fill-opacity="1"><g transform="translate(324.326181, 194.180128)"><g><path d="M 13.5 -6.109375 L 13.5 -5.609375 L 3.34375 -5.609375 C 3.507812 -4.503906 3.96875 -3.578125 4.71875 -2.828125 C 5.46875 -2.085938 6.484375 -1.71875 7.765625 -1.71875 C 8.648438 -1.71875 9.4375 -1.859375 10.125 -2.140625 C 10.8125 -2.421875 11.390625 -2.738281 11.859375 -3.09375 L 12.828125 -1.3125 C 12.242188 -0.90625 11.523438 -0.539062 10.671875 -0.21875 C 9.828125 0.101562 8.828125 0.265625 7.671875 0.265625 C 6.296875 0.265625 5.109375 -0.0078125 4.109375 -0.5625 C 3.117188 -1.125 2.351562 -1.898438 1.8125 -2.890625 C 1.269531 -3.890625 1 -5.046875 1 -6.359375 L 1 -6.375 C 1 -7.65625 1.25 -8.796875 1.75 -9.796875 C 2.257812 -10.796875 2.976562 -11.582031 3.90625 -12.15625 C 4.84375 -12.726562 5.953125 -13.015625 7.234375 -13.015625 C 8.566406 -13.015625 9.695312 -12.726562 10.625 -12.15625 C 11.550781 -11.582031 12.257812 -10.773438 12.75 -9.734375 C 13.25 -8.703125 13.5 -7.492188 13.5 -6.109375 Z M 7.21875 -11.015625 C 6.164062 -11.015625 5.304688 -10.6875 4.640625 -10.03125 C 3.972656 -9.375 3.550781 -8.554688 3.375 -7.578125 L 11.125 -7.578125 C 10.988281 -8.523438 10.597656 -9.332031 9.953125 -10 C 9.304688 -10.675781 8.394531 -11.015625 7.21875 -11.015625 Z M 7.21875 -11.015625 "/></g></g></g><g fill="#000000" fill-opacity="1"><g transform="translate(339.117932, 194.180128)"><g><path d="M 3.625 0 L 1.375 0 L 1.375 -12.078125 C 2.175781 -12.296875 3 -12.4375 3.84375 -12.5 C 4.6875 -12.570312 5.378906 -12.609375 5.921875 -12.609375 L 8.265625 -12.609375 L 8.265625 -10.515625 L 6.359375 -10.515625 C 6.066406 -10.515625 5.734375 -10.5 5.359375 -10.46875 C 4.992188 -10.445312 4.65625 -10.410156 4.34375 -10.359375 C 4.03125 -10.316406 3.789062 -10.265625 3.625 -10.203125 Z M 3.625 0 "/></g></g></g></svg>